
<svg xmlns="http://www.w3.org/2000/svg" width="600" height="260">

  <defs>
    <linearGradient id="grad" x1="0" y1="0" x2="1" y2="1">
      <stop offset="0%" stop-color="#1a1b27"/>
      <stop offset="100%" stop-color="#16161e"/>
    </linearGradient>
  </defs>

  <rect width="600" height="260" rx="20" fill="url(#grad)"/>

  <text x="30" y="45" fill="#bb9af7" font-size="22" font-family="Segoe UI" font-weight="600">
    Sort-Me Dashboard
  </text>

  <text x="30" y="75" fill="#7aa2f7" font-size="14" font-family="Segoe UI">
    Rank: #0
  </text>

  <text x="30" y="105" fill="#c0caf5" font-size="16" font-family="Segoe UI">
    Solved:
    <tspan fill="#9ece6a" font-weight="700"> 72</tspan>
  </text>

      <rect x="30" y="130" width="360" height="10" rx="5" fill="#24283b"/>
      <rect x="30" y="130" width="360.0" height="10" rx="5" fill="#9ece6a"/>
    <text x="400" y="138" fill="#c0caf5" font-size="12">Easy 72</text>
      <rect x="30" y="150" width="360" height="10" rx="5" fill="#24283b"/>
      <rect x="30" y="150" width="0.0" height="10" rx="5" fill="#e0af68"/>
    <text x="400" y="158" fill="#c0caf5" font-size="12">Medium 0</text>
      <rect x="30" y="170" width="360" height="10" rx="5" fill="#24283b"/>
      <rect x="30" y="170" width="0.0" height="10" rx="5" fill="#f7768e"/>
    <text x="400" y="178" fill="#c0caf5" font-size="12">Hard 0</text>
      <rect x="30" y="190" width="360" height="10" rx="5" fill="#24283b"/>
      <rect x="30" y="190" width="0.0" height="10" rx="5" fill="#bb9af7"/>
    <text x="400" y="198" fill="#c0caf5" font-size="12">VHard 0</text>
      <rect x="30" y="210" width="360" height="10" rx="5" fill="#24283b"/>
      <rect x="30" y="210" width="0.0" height="10" rx="5" fill="#7dcfff"/>
    <text x="400" y="218" fill="#c0caf5" font-size="12">Imp 0</text>
  <text x="380" y="245" fill="#565f89" font-size="11">
    updated 2026-02-21 18:19 UTC
  </text>

</svg>
